<svg width="22" height="12" viewBox="0 0 22 12" fill="none" xmlns="http://www.w3.org/2000/svg">
<path d="M11 11L10.2929 11.7071C10.4804 11.8946 10.7348 12 11 12C11.2652 12 11.5196 11.8946 11.7071 11.7071L11 11ZM1.70711 0.292893C1.31658 -0.097631 0.683418 -0.0976311 0.292893 0.292893C-0.097631 0.683417 -0.0976311 1.31658 0.292893 1.70711L1.70711 0.292893ZM21.7071 1.70711C22.0976 1.31658 22.0976 0.683418 21.7071 0.292893C21.3166 -0.0976311 20.6834 -0.0976311 20.2929 0.292893L21.7071 1.70711ZM11.7071 10.2929L1.70711 0.292893L0.292893 1.70711L10.2929 11.7071L11.7071 10.2929ZM11.7071 11.7071L21.7071 1.70711L20.2929 0.292893L10.2929 10.2929L11.7071 11.7071Z" fill="#1A2A3C" fill-opacity="0.75"/>
</svg>
