<svg width="50" height="50" viewBox="0 0 50 50" fill="none" xmlns="http://www.w3.org/2000/svg">
<rect width="50" height="50" rx="10" fill="#5654BF"/>
<rect width="50" height="50" rx="10" fill="url(#paint0_radial_301_88)"/>
<rect width="50" height="50" rx="10" fill="url(#paint1_radial_301_88)"/>
<rect width="50" height="50" rx="10" fill="url(#paint2_radial_301_88)"/>
<path d="M23.0481 26.9518C22.3717 26.2754 21.4371 25.857 20.4048 25.857C18.3403 25.857 16.6666 27.5306 16.6666 29.5952C16.6666 31.6597 18.3403 33.3334 20.4048 33.3334C22.4694 33.3334 24.143 31.6597 24.143 29.5952C24.143 28.5629 23.7246 27.6283 23.0481 26.9518ZM23.0481 26.9518L29.3397 20.6602M29.3397 20.6602L31.8564 18.1436M29.3397 20.6602L32.2935 23.614M31.8564 18.1436L33.3333 19.6205M31.8564 18.1436L33.3333 16.6667" stroke="#FAFAFA" stroke-width="2" stroke-linecap="round"/>
<defs>
<radialGradient id="paint0_radial_301_88" cx="0" cy="0" r="1" gradientUnits="userSpaceOnUse" gradientTransform="translate(43.5 7) rotate(132.785) scale(64.041)">
<stop stop-color="#C622FF"/>
<stop offset="1" stop-color="#C622FF" stop-opacity="0"/>
</radialGradient>
<radialGradient id="paint1_radial_301_88" cx="0" cy="0" r="1" gradientUnits="userSpaceOnUse" gradientTransform="translate(4.5 53.5) rotate(-87.8142) scale(65.5477)">
<stop stop-color="#FF655B"/>
<stop offset="1" stop-color="#FF655B" stop-opacity="0"/>
</radialGradient>
<radialGradient id="paint2_radial_301_88" cx="0" cy="0" r="1" gradientUnits="userSpaceOnUse" gradientTransform="translate(-8.5 -7) rotate(44.6255) scale(54.0948)">
<stop stop-color="#5BFFD8" stop-opacity="0.47"/>
<stop offset="1" stop-color="#5BFFD8" stop-opacity="0"/>
</radialGradient>
</defs>
</svg>
