<svg width="50" height="50" viewBox="0 0 50 50" fill="none" xmlns="http://www.w3.org/2000/svg">
<mask id="path-1-inside-1_502_10" fill="white">
<path fill-rule="evenodd" clip-rule="evenodd" d="M32.9352 1.03191e-06H0V50H50V14.6137L43.5788 21.0349C43.4798 21.1339 43.2323 21.1834 43.1085 21.0101L38.926 15.6891L38.2578 15.5654L42.7621 21.3566C42.8858 21.5298 42.9106 21.7031 42.7373 21.8763L35.7829 28.8307C35.6839 28.9297 35.4364 28.9792 35.3127 28.806L21.8494 11.5809C21.7256 11.4076 21.7256 11.2096 21.8741 11.0611L32.9352 1.03191e-06ZM27.1238 37.4899L20.1941 44.4195C20.0951 44.5185 19.8476 44.568 19.7239 44.3948L6.26058 27.1697C6.13684 26.9964 6.13684 26.7984 6.28533 26.6499L17.7687 15.1665C19.9961 12.9391 22.372 13.0381 24.3024 15.5625L29.1284 21.8239C31.0588 24.3483 30.9598 26.9222 28.7077 29.1743L24.4014 33.4806L27.1485 36.9702C27.2723 37.1434 27.2723 37.3414 27.1238 37.4899ZM20.5406 28.6298L17.249 24.3978L17.6202 24.0266L20.9118 28.2586L20.5406 28.6298ZM35.1147 11.5809L35.4612 11.2344L33.2585 8.38829L32.9121 8.73477L35.1147 11.5809Z"/>
<path d="M50 12.8466V11.9536L49.8784 11.7981L40.1131 0.254375L41.5741 2.1021C42.7373 3.61177 42.9601 5.07196 42.3413 6.82912L45.4349 7.00236L50 12.8466Z"/>
</mask>
<path fill-rule="evenodd" clip-rule="evenodd" d="M32.9352 1.03191e-06H0V50H50V14.6137L43.5788 21.0349C43.4798 21.1339 43.2323 21.1834 43.1085 21.0101L38.926 15.6891L38.2578 15.5654L42.7621 21.3566C42.8858 21.5298 42.9106 21.7031 42.7373 21.8763L35.7829 28.8307C35.6839 28.9297 35.4364 28.9792 35.3127 28.806L21.8494 11.5809C21.7256 11.4076 21.7256 11.2096 21.8741 11.0611L32.9352 1.03191e-06ZM27.1238 37.4899L20.1941 44.4195C20.0951 44.5185 19.8476 44.568 19.7239 44.3948L6.26058 27.1697C6.13684 26.9964 6.13684 26.7984 6.28533 26.6499L17.7687 15.1665C19.9961 12.9391 22.372 13.0381 24.3024 15.5625L29.1284 21.8239C31.0588 24.3483 30.9598 26.9222 28.7077 29.1743L24.4014 33.4806L27.1485 36.9702C27.2723 37.1434 27.2723 37.3414 27.1238 37.4899ZM20.5406 28.6298L17.249 24.3978L17.6202 24.0266L20.9118 28.2586L20.5406 28.6298ZM35.1147 11.5809L35.4612 11.2344L33.2585 8.38829L32.9121 8.73477L35.1147 11.5809Z" fill="#1A2A3C"/>
<path d="M50 12.8466V11.9536L49.8784 11.7981L40.1131 0.254375L41.5741 2.1021C42.7373 3.61177 42.9601 5.07196 42.3413 6.82912L45.4349 7.00236L50 12.8466Z" fill="#1A2A3C"/>
<path d="M50 1.03191e-06H50.5V-0.499999H50V1.03191e-06ZM40.1131 0.254375L40.0459 0.749831L40.1131 0.254375ZM0 0.500001H50V-0.499999H0V0.500001ZM49.5 1.03191e-06V50H50.5V1.03191e-06H49.5ZM32.9352 0.500001H39.912V-0.499999H32.9352V0.500001ZM40.6569 0.500001H50V-0.499999H40.6569V0.500001ZM49.5 1.03191e-06V11.9536H50.5V1.03191e-06H49.5ZM49.5 12.8466V14.6137H50.5V12.8466H49.5ZM40.6569 -0.499999H39.912V0.500001H40.6569V-0.499999ZM40.6569 1.03191e-06C40.6857 -0.499168 40.6857 -0.49917 40.6856 -0.499173C40.6856 -0.499175 40.6855 -0.499179 40.6855 -0.499183C40.6853 -0.499192 40.6851 -0.499204 40.6848 -0.49922C40.6843 -0.499252 40.6835 -0.499298 40.6824 -0.499358C40.6803 -0.499478 40.6772 -0.499654 40.6732 -0.499881C40.6652 -0.500336 40.6534 -0.500999 40.6382 -0.501839C40.6079 -0.503519 40.564 -0.505909 40.5096 -0.50877C40.4007 -0.514488 40.2493 -0.522098 40.0791 -0.529666C39.7415 -0.544679 39.32 -0.559986 39.0104 -0.559227C38.8653 -0.558872 38.7108 -0.555276 38.6022 -0.539137C38.574 -0.534942 38.5288 -0.527152 38.48 -0.511245C38.4558 -0.503332 38.4156 -0.488644 38.3711 -0.462661C38.3323 -0.440068 38.2474 -0.384572 38.1846 -0.277028C38.1075 -0.145045 38.0938 0.0147259 38.1482 0.158435C38.1925 0.275558 38.2676 0.344682 38.3025 0.373617C38.3728 0.431885 38.4455 0.460666 38.4711 0.470634C38.5866 0.515778 38.7743 0.554206 38.9993 0.593331C39.2437 0.635807 39.5855 0.687342 40.0459 0.749831L40.1804 -0.241082C39.7251 -0.302871 39.3972 -0.352493 39.1706 -0.391893C39.0571 -0.411621 38.9728 -0.428142 38.9125 -0.441633C38.8458 -0.456544 38.8278 -0.463618 38.8349 -0.460814C38.8386 -0.459374 38.8493 -0.455073 38.8642 -0.447383C38.877 -0.440738 38.9065 -0.424594 38.9406 -0.396323C38.9696 -0.372347 39.0409 -0.307955 39.0835 -0.195345C39.1066 -0.134248 39.1204 -0.0606781 39.1136 0.0201767C39.1068 0.100997 39.0809 0.171081 39.0481 0.227227C38.9877 0.330687 38.9072 0.382311 38.8747 0.401237C38.8365 0.423551 38.8045 0.434775 38.7903 0.43942C38.7615 0.448792 38.7436 0.450832 38.7492 0.450001C38.7759 0.44604 38.861 0.441142 39.0128 0.44077C39.297 0.440074 39.6982 0.454382 40.0347 0.469347C40.2016 0.476768 40.3502 0.484239 40.4571 0.489853C40.5105 0.492659 40.5534 0.494998 40.5829 0.496631C40.5977 0.497448 40.6091 0.498088 40.6167 0.498521C40.6205 0.498738 40.6234 0.498902 40.6254 0.499012C40.6263 0.499067 40.627 0.499108 40.6275 0.499134C40.6277 0.499148 40.6279 0.499157 40.628 0.499163C40.628 0.499166 40.6281 0.499168 40.6281 0.49917C40.6281 0.499171 40.6281 0.499171 40.6569 1.03191e-06ZM40.0459 0.749831C40.2883 0.782734 40.5644 0.818782 40.8775 0.858251L41.0025 -0.133897C40.6919 -0.173051 40.4191 -0.208685 40.1804 -0.241082L40.0459 0.749831ZM40.5053 -0.0557406L40.3042 -0.310114L39.5198 0.310116L39.7209 0.56449L40.5053 -0.0557406ZM0 1.03191e-06V-0.999999H-1V1.03191e-06H0ZM50 50V51H51V50H50ZM0 50H-1V51H0V50ZM20.1941 44.4195L19.487 43.7124L19.487 43.7124L20.1941 44.4195ZM27.1238 37.4899L27.8309 38.197L27.8309 38.197L27.1238 37.4899ZM27.1485 36.9702L27.962 36.3887L27.9486 36.3699L27.9342 36.3517L27.1485 36.9702ZM24.4014 33.4806L23.6943 32.7735L23.0664 33.4014L23.6157 34.0992L24.4014 33.4806ZM28.7077 29.1743L28.0006 28.4672L28.7077 29.1743ZM29.1284 21.8239L29.9228 21.2165L29.9204 21.2134L29.1284 21.8239ZM24.3024 15.5625L23.508 16.17L23.5104 16.173L24.3024 15.5625ZM17.7687 15.1665L17.0616 14.4594L17.7687 15.1665ZM6.28533 26.6499L5.57822 25.9428L5.5782 25.9428L6.28533 26.6499ZM6.26058 27.1697L5.44675 27.7508L5.45935 27.7685L5.47269 27.7855L6.26058 27.1697ZM19.7239 44.3948L20.5377 43.8136L20.5251 43.796L20.5118 43.779L19.7239 44.3948ZM20.5406 28.6298L19.7513 29.2438L20.4467 30.1379L21.2477 29.3369L20.5406 28.6298ZM17.249 24.3978L16.5419 23.6907L15.9177 24.3149L16.4597 25.0118L17.249 24.3978ZM17.6202 24.0266L18.4096 23.4127L17.7141 22.5185L16.9131 23.3195L17.6202 24.0266ZM20.9118 28.2586L21.6189 28.9657L22.2431 28.3415L21.7012 27.6447L20.9118 28.2586ZM21.8741 11.0611L21.167 10.354L21.167 10.354L21.8741 11.0611ZM21.8494 11.5809L21.0357 12.1622L21.0482 12.1797L21.0615 12.1967L21.8494 11.5809ZM35.3127 28.806L36.1265 28.2248L36.1139 28.2072L36.1006 28.1902L35.3127 28.806ZM42.7373 21.8763L42.0304 21.169L42.0302 21.1692L42.7373 21.8763ZM42.7621 21.3566L43.5759 20.7754L43.564 20.7588L43.5515 20.7427L42.7621 21.3566ZM38.2578 15.5654L38.4398 14.5821L35.8538 14.1034L37.4685 16.1794L38.2578 15.5654ZM38.926 15.6891L39.7122 15.0711L39.479 14.7745L39.108 14.7058L38.926 15.6891ZM43.1085 21.0101L43.9222 20.4288L43.9089 20.4102L43.8947 20.3921L43.1085 21.0101ZM43.5788 21.0349L44.2859 21.742V21.742L43.5788 21.0349ZM45.4349 7.00236L46.223 6.38677L45.9437 6.02929L45.4908 6.00392L45.4349 7.00236ZM42.3413 6.82912L41.3981 6.49695L40.9557 7.75309L42.2854 7.82755L42.3413 6.82912ZM41.5741 2.1021L42.3663 1.49171L42.3585 1.48187L41.5741 2.1021ZM35.4612 11.2344L36.1683 11.9415L36.791 11.3188L36.252 10.6224L35.4612 11.2344ZM35.1147 11.5809L34.3239 12.1929L35.0189 13.091L35.8218 12.288L35.1147 11.5809ZM32.9121 8.73477L32.2049 8.02773L31.5824 8.65043L32.1213 9.34679L32.9121 8.73477ZM33.2585 8.38829L34.0493 7.77625L33.3543 6.87815L32.5513 7.68126L33.2585 8.38829ZM32.9352 1.03191e-06L33.6423 0.707108L35.3495 -0.999999H32.9352V1.03191e-06ZM50 14.6137H51V12.1995L49.2929 13.9066L50 14.6137ZM50 11.9536H51V11.6092L50.7879 11.3378L50 11.9536ZM50 12.8466L49.2119 13.4622L51 15.7513V12.8466H50ZM49.8784 11.7981L50.6663 11.1823L50.6544 11.167L50.6419 11.1522L49.8784 11.7981ZM40.1131 0.254375L40.8766 -0.391473L39.3287 0.874608L40.1131 0.254375ZM50 49H0V51H50V49ZM1 50V1.03191e-06H-1V50H1ZM20.9012 45.1266L27.8309 38.197L26.4167 36.7828L19.487 43.7124L20.9012 45.1266ZM27.8309 38.197C28.0713 37.9566 28.2253 37.6343 28.2377 37.2737C28.2497 36.925 28.1274 36.6201 27.962 36.3887L26.335 37.5517C26.2934 37.4935 26.233 37.3743 26.2389 37.2049C26.2451 37.0238 26.3248 36.8747 26.4167 36.7828L27.8309 38.197ZM27.9342 36.3517L25.1871 32.8621L23.6157 34.0992L26.3628 37.5888L27.9342 36.3517ZM25.1085 34.1877L29.4148 29.8814L28.0006 28.4672L23.6943 32.7735L25.1085 34.1877ZM29.4148 29.8814C30.6721 28.6241 31.4043 27.1961 31.4851 25.6535C31.5656 24.1161 30.9912 22.6137 29.9228 21.2165L28.334 22.4314C29.196 23.5585 29.5373 24.6053 29.4879 25.5489C29.4387 26.4875 28.9954 27.4724 28.0006 28.4672L29.4148 29.8814ZM29.9204 21.2134L25.0944 14.952L23.5104 16.173L28.3364 22.4344L29.9204 21.2134ZM25.0968 14.9551C24.0216 13.549 22.7027 12.6675 21.2024 12.5841C19.708 12.5011 18.296 13.225 17.0616 14.4594L18.4758 15.8736C19.4688 14.8807 20.3584 14.5403 21.0915 14.5811C21.8185 14.6214 22.6528 15.0516 23.508 16.17L25.0968 14.9551ZM17.0616 14.4594L5.57822 25.9428L6.99244 27.357L18.4758 15.8736L17.0616 14.4594ZM5.5782 25.9428C5.33776 26.1833 5.18389 26.5055 5.17146 26.8661C5.15944 27.2147 5.28158 27.5195 5.44675 27.7508L7.07441 26.5886C7.11584 26.6466 7.17611 26.7658 7.17027 26.935C7.16403 27.116 7.0844 27.265 6.99245 27.357L5.5782 25.9428ZM5.47269 27.7855L18.936 45.0106L20.5118 43.779L7.04847 26.5539L5.47269 27.7855ZM18.9101 44.976C19.2095 45.3952 19.6589 45.5205 20.0028 45.5086C20.3097 45.498 20.6487 45.3791 20.9012 45.1266L19.487 43.7124C19.6405 43.5589 19.8063 43.5142 19.9337 43.5098C20.0982 43.5042 20.362 43.5677 20.5377 43.8136L18.9101 44.976ZM21.33 28.0159L18.0384 23.7839L16.4597 25.0118L19.7513 29.2438L21.33 28.0159ZM17.9561 25.1049L18.3273 24.7337L16.9131 23.3195L16.5419 23.6907L17.9561 25.1049ZM16.8309 24.6406L20.1225 28.8726L21.7012 27.6447L18.4096 23.4127L16.8309 24.6406ZM20.2047 27.5515L19.8335 27.9227L21.2477 29.3369L21.6189 28.9657L20.2047 27.5515ZM21.167 10.354C20.9266 10.5945 20.7726 10.9167 20.7602 11.2773C20.7482 11.6261 20.8705 11.9309 21.0357 12.1622L22.6631 10.9996C22.7046 11.0577 22.7649 11.1768 22.7591 11.3461C22.7528 11.5272 22.6732 11.6763 22.5812 11.7682L21.167 10.354ZM21.0615 12.1967L34.5248 29.4218L36.1006 28.1902L22.6373 10.9651L21.0615 12.1967ZM34.4989 29.3872C34.7983 29.8064 35.2477 29.9317 35.5916 29.9198C35.8985 29.9092 36.2375 29.7903 36.49 29.5378L35.0758 28.1236C35.2293 27.9701 35.3951 27.9254 35.5225 27.921C35.687 27.9154 35.9508 27.9789 36.1265 28.2248L34.4989 29.3872ZM36.49 29.5378L43.4444 22.5834L42.0302 21.1692L35.0758 28.1236L36.49 29.5378ZM43.4442 22.5836C43.6736 22.3544 43.8611 22.0258 43.8611 21.6165C43.8611 21.2406 43.7014 20.9512 43.5759 20.7754L41.9483 21.9378C41.9465 21.9352 41.8611 21.8191 41.8611 21.6165C41.8611 21.3804 41.9743 21.2251 42.0304 21.169L43.4442 22.5836ZM43.5515 20.7427L39.0472 14.9515L37.4685 16.1794L41.9728 21.9706L43.5515 20.7427ZM38.0758 16.5487L38.744 16.6724L39.108 14.7058L38.4398 14.5821L38.0758 16.5487ZM38.1398 16.3071L42.3223 21.6281L43.8947 20.3921L39.7122 15.0711L38.1398 16.3071ZM42.2948 21.5914C42.5941 22.0103 43.0432 22.1359 43.3873 22.124C43.6943 22.1135 44.0334 21.9945 44.2859 21.742L42.8717 20.3278C43.0252 20.1743 43.191 20.1296 43.3186 20.1252C43.4832 20.1196 43.7467 20.1832 43.9222 20.4288L42.2948 21.5914ZM45.4908 6.00392L42.3972 5.83068L42.2854 7.82755L45.379 8.00079L45.4908 6.00392ZM43.2845 7.16128C43.6362 6.16266 43.7691 5.18763 43.6134 4.2148C43.4577 3.24206 43.0258 2.34784 42.3662 1.49176L40.782 2.71245C41.2856 3.36604 41.5467 3.95675 41.6385 4.5308C41.7304 5.10477 41.6652 5.73841 41.3981 6.49695L43.2845 7.16128ZM34.7541 10.5273L34.4076 10.8738L35.8218 12.288L36.1683 11.9415L34.7541 10.5273ZM35.9055 10.9689L33.7029 8.12275L32.1213 9.34679L34.3239 12.1929L35.9055 10.9689ZM33.6193 9.4418L33.9657 9.09533L32.5513 7.68126L32.2049 8.02773L33.6193 9.4418ZM32.4677 9.00034L34.6704 11.8465L36.252 10.6224L34.0493 7.77625L32.4677 9.00034ZM32.2281 -0.707106L21.167 10.354L22.5812 11.7682L33.6423 0.707108L32.2281 -0.707106ZM44.2859 21.742L50.7071 15.3208L49.2929 13.9066L42.8717 20.3278L44.2859 21.742ZM50.7881 12.231L46.223 6.38677L44.6468 7.61794L49.2119 13.4622L50.7881 12.231ZM32.9352 -0.999999H0V1H32.9352V-0.999999ZM51 50V14.6137H49V50H51ZM51 12.8466V11.9536H49V12.8466H51ZM49.0906 12.4139L49.2121 12.5694L50.7879 11.3378L50.6663 11.1823L49.0906 12.4139ZM42.3585 1.48187L40.8975 -0.365859L39.3287 0.874608L40.7897 2.72234L42.3585 1.48187ZM39.3497 0.900223L49.115 12.4439L50.6419 11.1522L40.8766 -0.391473L39.3497 0.900223Z" fill="#1A2A3C" mask="url(#path-1-inside-1_502_10)"/>
</svg>
